<?xml version="1.0" encoding="utf-8"?>
<!-- Generator: Adobe Illustrator 28.1.0, SVG Export Plug-In . SVG Version: 6.00 Build 0)  -->
<svg version="1.1" id="usaMap" xmlns="http://www.w3.org/2000/svg" xmlns:xlink="http://www.w3.org/1999/xlink" x="0px" y="0px" viewBox="0 0 996.9 533.6" preserveAspectRatio="xMidYMid meet">
   <defs>
     <style type="text/css">
      .st0{fill:#ccd0d9;} .st1{fill:none;stroke:#C5C6C9;stroke-width:6;stroke-miterlimit:10;} .st2{fill:#ccd0d9;stroke:#FFFFFF;stroke-width:2;stroke-miterlimit:10;} .st3{fill:#ccd0d9;stroke:#FFFFFF;stroke-width:4;stroke-miterlimit:10;} .st4{fill:#ccd0d9;stroke:#FFFFFF;stroke-miterlimit:10;}
      <!-- .st5{fill:#FFFC05;stroke:#061B38;stroke-width:5;stroke-miterlimit:10;} -->
     </style>
   </defs>
<g id="ak">
	<path id="path" class="st0" d="M126.8,407.6l0.4,58.4l7.3,1.4l5.6,9.8l6-2.8l10.7,14.9l0.4,5.1l7.3,5.1l-0.4,11.2l-4.3-6.1l-2.6,6.5l-13.7-22l-13.2-14l-27.8-8.4L102,473l-11.9,6.1l0.4-10.7l-9.8,8.9l1.7,4.7l-12,13.5l-23.9,17.7l-2.6-4.7l23.5-17.8l1.3-10.7H54.2l-2.6-6.5l-6-0.5l-6-12.1l5.1-8.9l11.5-2.3l-1.7-7.9H38.4l-5.1-7.5l14.5-4.7l4.7,3.3v-7.9l-13.7-9.3l0.8-4.7h9.4l3.8-7.5l18.4-8.4l14.1,5.6C85.4,400.6,126.8,407.6,126.8,407.6z M79.2,491l0.9,4.4l5.6-4.7v-7.9C85.6,482.8,79.2,491,79.2,491zM29.7,518.5l-0.4,4.7l8.5-4.7v-5.1C37.8,513.4,29.7,518.5,29.7,518.5z M9.8,526l-1.1,4l3.4-0.9l-0.2-4.2L9.8,526L9.8,526zM35.3,472.8l3,2.6l2.1-0.5l-0.2-4.1l-4,0.2L35.3,472.8z M24.3,452.1l4.5-3.1l-7.1-2.3l-2.8,2.2L24.3,452.1L24.3,452.1z"/>
</g>
<g id="hi">
	<path id="path-2" class="st0" d="M196.8,422.3h8.1l-1.5,7.8h-9.1L196.8,422.3L196.8,422.3z M237.3,442l4,8.4l7.1-1.2l-4-9 L237.3,442L237.3,442z M282.2,461l3.4,8l9.1-1.2l-8.4-8.8L282.2,461L282.2,461z M298.7,499l0.7,18l6.4,11.2l22.9-20L316.9,493 l-15.8-6.4L298.7,499L298.7,499z M265,454.5l0.7,3.3l3.7-2.5l-1.6-2.5L265,454.5z M270.6,471.2l2.9,0.2l-0.9-4.9l-2.5,1.1 L270.6,471.2L270.6,471.2z M279.5,478.6l2.3,0l-0.3-2.8l-1.9,0.4L279.5,478.6L279.5,478.6z"/>
</g>
<g id="ri">
	<polygon id="path-3" class="st2" points="925.5,156.1 920.5,146.2 913.6,146.2 912.7,158.5 912.7,158.5 913.8,158.3 	"/>
</g>
<g id="md">
	<polygon id="path-4" class="st2" points="805.5,192.5 781.5,192.5 781.3,203.7 	"/>
	<polygon id="path-5" class="st2" points="846.3,218 845.5,192.5 805.5,192.5 812.5,198.7 811.3,201.5 820.7,209.6 820.7,209.6 823.4,205.5 826.4,208.4 823.8,212.3 823.8,212.3 833.4,220.5 832.7,203.8 839.1,196.5 837.3,205.9 838.4,223.2 845.6,230.1 853,228.1 859.9,218.2 	"/>
</g>
<g id="me">
	<path id="path-6" class="st2" d="M933.4,124.3l3.4-10.8l59-26.1l-0.6-3.7l-13.1-12.5c0,0-0.4-27.5-0.6-28c-0.1-0.5-5.9-7-5.9-7 L957.4,35l-31.2,44.4l0,0l1.6,39.2C927.7,118.6,933.4,124.3,933.4,124.3z"/>
</g>
<g id="la">
	<polygon id="path-7" class="st3" points="571.5,370.2 583.6,343.9 580.8,329.5 580.8,329.5 530.1,329.5 530.1,351.2 539.4,368.9 533.1,399 533.1,399 585.1,407.4 602,405.6 610.3,386 604.2,372.2 	"/>
</g>
<g id="mi">
	<path id="path-8" class="st3" d="M694.3,69.4c0.4,0.2,3.9,1,3.9,1l-0.8-3.2l-3-0.2L694.3,69.4L694.3,69.4z"/>
	<polygon id="path-9" class="st3" points="675.1,72.4 677.7,74.5 677.9,70.5 676.4,69.4 	"/>
	<polygon id="path-10" class="st3" points="717.6,138.5 729.3,126.3 723.7,103.9 710.7,114.6 705.1,111.6 705,106.4 715.1,98.1 713.4,78.7 690.6,69.5 667.1,89.9 660.8,111.4 665.8,126.9 659.9,145.8 653.6,151 712.9,151.6 "/>
	<path id="path-11" class="st2" d="M701.5,60.9l-4.2-4.2h-11.4l-0.7-7L672.3,50l-7,0.3l-9,5.8l-9.1-2.2l-7.2-7.8l-15.8,2.5L635.6,36 l-7.2,0.2l-12.5,11.7l-12.8,1.3l-7.9,4.2l3.4,5.2l35.2,7.1l6.7,16.9l0,0l1.7-2.1l4.9-9.5l6.2-7.7l0.6,6.2l2.8-3.2l3.7-0.5l-2.7,3.3 l0.7,3.3c0,0,6.5-7.7,6.9-7.8s10.4-0.3,10.4-0.3l3-4.5l12.2,6.3l2-4.3l7.5,2.7l11.3,0.8L701.5,60.9L701.5,60.9z"/>
	<path id="path-12" class="st3" d="M613.3,26.8c0.6,0,4.1,0.3,4.1,0.3l10.3-7.3l-11.1,2.3l-2.8,1.7L613.3,26.8L613.3,26.8z"/>
</g>
<g id="mn">
	<polygon id="path-13" class="st3" points="578.6,108.9 553,91.6 551.5,65.2 560.2,65.2 565.1,49.7 583.4,33 604.3,24 517.9,3.6 476,2.8 486.2,55.2 486.2,69.4 482.6,72 489,78.2 489,115.6 579.3,115.6 	"/>
</g>
<g id="mo">
	<polygon id="path-14" class="st3" points="608.6,234.4 592.9,221.7 598.6,209.6 576.3,192.5 574.5,180.3 570.2,174 502.8,175.5 502.8,175.5 506.8,185.7 517.2,190.3 511.3,196.7 520.3,203.7 520.3,259.8 597.7,257.6 594.9,268.5 604.6,268.5 613.3,249.4 	"/>
</g>
<g id="ms">
	<polygon id="path-15" class="st3" points="632.1,289.5 594.9,289.5 578.6,318.2 583.6,343.9 571.5,370.2 604.2,372.2 610.3,386 627,385.2 625.6,353.9 	"/>
</g>
<g id="ma">
	<path id="path-16" class="st2" d="M943.3,151.9l-6.7-3.8c0,0-7.7-12.2-7.5-12.6c0.2-0.3,2.7-6.3,2.7-6.3l0.3-0.9l-7.9,4l-36.4-1 l-3.9,14.9h36.6l5.1,9.9l0.2,0L943.3,151.9L943.3,151.9z"/>
</g>
<g id="pa">
	<polygon id="path-17" class="st2" points="854.9,174.2 854.9,166.3 863.4,158.7 858.1,156.2 853.1,146.2 776.1,146.2 776.1,141.3 763,147.5 763.5,192.5 845.5,192.5 851.7,189.2 862.9,183.2 	"/>
</g>
<g id="fl">
	<path id="path-18" class="st3" d="M748,385.8l1.7-7.2l-62.5-2v-5.7h-45.6l2.8,13.4l24.6-0.7c0,0,13.3,12,13.9,12s21-6,21-6 l22.9,27.6l-3.4,20l29.8,51.4l12.4,0.7l7.9-34.3L748,385.8L748,385.8z"/>
</g>
<g id="vt">
	<polygon id="path-19" class="st2" points="908.9,98.7 917,93.7 918.4,85.6 886.6,86 887.9,131.3 900.8,131.6 900.8,131.6 	"/>
</g>
<g id="va">
	<polygon id="path-20" class="st4" points="842.1,239 843,243.6 853,228.1 845.6,230.1 	"/>
	<polygon id="path-21" class="st2" points="841.1,249.9 834.6,249.2 833.4,220.5 833.4,220.5 811.3,201.5 809.7,205.4 801.8,199.7
		785.1,221.1 780,215.4 768,238.2 744.4,243.6 738.8,237.3 709.8,256.2 842.3,257.6 	"/>
</g>
<g id="nc">
	<polygon id="path-22" class="st3" points="834.6,268.3 843.2,263.2 842.3,257.6 743,256.6 697.1,289.5 718.2,289.5 731.4,284.1 754.2,286.8 759.6,293.5 778.7,293.5 799.5,316.2 834.6,290.6 845.3,273.5 	"/>
</g>
<g id="nd">
	<polygon id="path-23" class="st3" points="486.2,55.2 476,2.8 358.1,2 358.1,64.8 486.2,64.8 	"/>
</g>
<g id="ne">
	<polygon id="path-24" class="st3" points="506.8,185.7 487.4,135.8 456.2,125.7 358.1,126.6 358.1,166.2 392,166.2 392,186.7 	"/>
</g>
<g id="nm">
	<polygon id="path-25" class="st3" points="271.9,249.4 271.9,364.2 285.6,364.2 285.2,354.7 317.3,355.1 373.6,349.6 375.9,249.4 "/>
</g>
<g id="nh">
	<polygon id="path-26" class="st2" points="927.7,118.6 926.1,79.4 921.5,81.7 918.4,85.6 917,93.7 908.9,98.7 900.8,131.6 900.8,131.6 924.3,132.3 932.2,128.3 933.4,124.3 	"/>
</g>
<g id="nj">
	<polygon id="path-27" class="st2" points="875.9,171.7 878.2,168.2 877.3,165 863.4,158.7 854.9,166.3 854.9,174.2 862.9,183.2 851.7,189.2 852.1,200.9 859.9,206.9 863.2,206.7 869.7,198.4 876.8,180.2 873.9,176 	"/>
</g>
<g id="ny">
		<polygon class="st2" points="876.1,176.2 908.1,167 905.6,162.9 889.9,166.4 882.4,167.6 881.6,166.9 883.9,146.2 887.9,131.3 886.6,86 885.8,86.1 862.8,85.7 838.1,100.2 836.6,113.1 824.6,121.1 802.4,119.4 788.4,120.8 791.5,130.3 776.1,141.3 776.1,146.2 853.1,146.2 858.1,156.2 877.3,165 878.2,168.2 		"/>
</g>
<g id="wy">
	<polygon id="path-29" class="st3" points="238.1,167.1 358.1,166.2 358.1,86.1 358.1,83.9 238.1,85 	"/>
</g>
<g id="mt">
	<polygon id="path-30" class="st3" points="358.1,83.9 358.1,2 152.1,2.5 151,23.8 156.9,36.1 172.4,49.8 180.7,49.8 176.6,73.4 180.7,76.8 188.2,70.5 206,95.2 229.1,93.2 231.7,89.5 238.1,97 238.1,85 	"/>
</g>
<g id="ut">
	<polygon id="path-31" class="st3" points="271.9,166.9 238.1,167.1 238.1,147.1 186.7,147.1 186.7,249.4 271.9,249.4 	"/>
</g>
<g id="nv">
	<polygon id="path-32" class="st3" points="175.8,288.1 173.9,264.6 182.5,268.5 186.7,263.2 186.7,249.4 186.7,147.1 83.9,147.1 83.9,207.8 	"/>
</g>
<g id="de">
	<polygon id="path-33" class="st2" points="851.7,189.2 845.5,192.5 846.3,218 859.9,218.2 849.7,200.8 	"/>
</g>
<g id="tn">
	<polygon id="path-34" class="st3" points="633.7,255.4 633.7,259.8 608.6,259.8 594.9,289.5 697.1,289.5 743,256.6 	"/>
</g>
<g id="tx">
	<polygon id="path-35" class="st3" points="530.1,319.2 523.7,317.5 511,311.3 491.1,316.2 478.9,311.3 463,309.1 428.4,297.5 428.4,259.8 375.9,259.8 375.6,259.8 373.6,349.6 317.3,355.1 343,379.6 350.2,401.4 372.1,411.2 381.3,395.8 404.4,395.2 417.2,409.2 436.9,442.1 443.6,465 476.1,475.3 472.9,450.3 476.8,437.4 525.8,397.8 533.1,399 533.1,399 539.4,368.9 530.1,351.2 "/>
</g>
<g id="ga">
	<polygon id="path-36" class="st3" points="687.2,376.6 749.8,378.6 749.8,378.6 757.1,348.2 714.8,295.8 718.2,289.5 675.4,289.5 687.2,343.9 	"/>
</g>
<g id="sc">
	<polygon id="path-37" class="st3" points="757.1,348.2 799.5,316.2 778.7,293.5 759.6,293.5 754.2,286.8 731.4,284.1 718.2,289.5 714.8,295.8 	"/>
</g>
<g id="sd">
	<polygon id="path-38" class="st3" points="486.2,69.4 486.2,64.8 358.1,64.8 358.1,86.1 358.1,126.6 456.2,125.7 487.4,135.8 487.1,115.6 489,115.6 489,78.2 482.6,72 	"/>
</g>
<g id="co">
	<polygon id="path-39" class="st3" points="392,166.2 358.1,166.2 271.9,166.9 271.9,249.4 392,249.4 	"/>
</g>
<g id="ct">
	<polygon id="path-40" class="st2" points="913.6,146.2 884,146.2 881.9,165.3 882.4,164.9 889.7,162.4 912.7,158.5 912.7,158.5 "/>
</g>
<g id="ky">
	<polygon id="path-41" class="st3" points="727.9,224.9 727.9,218.2 689.2,203.7 669.8,228.1 635.4,230.1 624.2,246.1 616,243.6 608.6,259.8 633.7,259.8 633.7,255.4 709.8,256.2 738.8,237.3 	"/>
</g>
<g id="ks">
	<polygon id="path-42" class="st3" points="517.2,190.3 506.8,185.7 392,186.7 392,249.4 520.3,249.4 520.3,203.7 511.3,196.7 	"/>
</g>
<g id="or">
	<polygon id="path-43" class="st3" points="134,63.9 102.2,63.9 63.7,72.2 51.6,68.9 43.7,74.8 35.5,71.5 33.8,62.2 14.4,60.3 11.4,109.3 5.8,130.6 7,147.1 134,147.1 133.2,108.3 137.7,102.9 130.9,99.2 144.5,72.9 	"/>
</g>
<g id="oh">
	<polygon id="path-44" class="st2" points="734.8,207.7 755.5,195.2 763.3,175.5 763,147.5 740.6,158 725.4,159.8 712.9,151.6 689.2,151.4 689.2,151.6 689.2,203.7 727.9,218.2 	"/>
</g>
<g id="ok">
	<polygon id="path-45" class="st3" points="428.4,259.8 428.4,297.5 463,309.1 478.9,311.3 491.1,316.2 511,311.3 523.7,317.5 523.7,279.1 520.3,259.8 520.3,249.4 375.9,249.4 375.6,259.8 375.9,259.8 	"/>
</g>
<g id="wv">
	<polygon id="path-46" class="st2" points="755.5,195.2 734.8,207.7 727.9,218.2 727.9,224.9 744.4,243.6 768,238.2 780,215.4 785.1,221.1 801.8,199.7 809.7,205.4 812.5,198.7 805.5,192.5 781.3,203.7 781.5,192.5 763.5,192.5 763.3,175.5 763.3,175.5 	"/>
</g>
<g id="wi">
	<polygon id="path-47" class="st3" points="636.9,135.8 635.9,119.6 649.9,84.4 647.7,84.4 636.3,95.4 634.2,90.4 640.5,82.5 640.5,82.5 633.7,65.6 598.6,58.5 595.2,53.4 582.5,53.7 584.6,45.7 565.1,49.7 560.2,65.2 551.5,65.2 553,91.6 578.6,108.9 580.8,130.3 587.6,135.8 636.9,135.8 	"/>
</g>
<g id="in">
	<polygon id="path-48" class="st3" points="689.2,203.7 689.2,151.6 689.2,151.4 653.6,151 644.7,153.8 642.8,150.6 642.8,214.4 635.4,230.1 669.8,228.1 	"/>
</g>
<g id="il">
	<polygon id="path-49" class="st3" points="636.9,135.8 636.9,135.8 587.6,135.8 597.4,144 593.5,155.3 582.2,158.6 583.4,168.2 574.5,180.3 576.3,192.5 598.6,209.6 592.9,221.7 608.6,234.4 613.3,249.4 616,243.6 624.2,246.1 635.4,230.1 642.8,214.4 642.8,150.6 637.3,141.6 	"/>
</g>
<g id="al">
	<polygon id="path-50" class="st3" points="687.2,370.9 687.2,343.9 675.4,289.5 632.1,289.5 625.6,353.9 627,385.2 644.4,384.3 641.6,370.9 	"/>
</g>
<g id="ar">
	<polygon id="path-51" class="st3" points="597.7,257.6 520.3,259.8 523.7,279.1 523.7,317.5 530.1,319.2 530.1,329.5 580.8,329.5 578.6,318.2 594.9,289.5 604.6,268.5 594.9,268.5 	"/>
</g>
<g id="az">
	<polygon id="path-52" class="st3" points="186.7,249.4 186.7,263.2 182.5,268.5 173.9,264.6 175.8,288.1 184,304.2 178.4,308.6 175.4,327.9 179.9,329.1 179,335.2 173,335.2 172.8,337.1 172.8,340.4 236.4,364.2 271.9,364.2 271.9,249.4 	"/>
</g>
<g id="id">
	<polygon id="path-53" class="st3" points="238.1,97 231.7,89.5 229.1,93.2 206,95.2 188.2,70.5 180.7,76.8 176.6,73.4 180.7,49.8 172.4,49.8 156.9,36.1 151,23.8 152.1,2.5 133.9,2.9 134,63.9 144.5,72.9 130.9,99.2 137.7,102.9 133.2,108.3 134,147.1 238.1,147.1 	"/>
</g>
<g id="ia">
	<polygon id="path-54" class="st3" points="579.3,115.6 489,115.6 487.1,115.6 487.4,135.8 502.8,175.5 570.2,174 574.5,180.3 583.4,168.2 582.2,158.6 593.5,155.3 597.4,144 580.8,130.3 	"/>
</g>
<g id="wa">
	<polygon id="path-55" class="st3" points="35.5,71.5 43.7,74.8 51.6,68.9 63.7,72.2 102.2,63.9 134,63.9 133.9,2.9 30.5,3.3 35,21.1 2.4,17.1 2,27.4 14.4,60.3 33.8,62.2 	"/>
</g>
<g id="dc">
	<polygon id="path-56" class="st4" points="827,208.3 823.3,204.8 820.6,208.8 824.4,212.1 	"/>
</g>
<g id="ca">
	<polygon id="path-57" class="st3" points="184,304.2 175.8,288.1 83.9,207.8 83.9,147.1 7,147.1 9.5,179.6 73.3,298.4 127.8,324.2 133.2,339.5 172.8,337.1 173,335.2 179,335.2 179.9,329.1 175.4,327.9 178.4,308.6 	"/>
</g>

<g id="line">
	<polyline id="line-2" class="st1" points="16.5,376.2 179.1,377.2 179.1,511.5 	"/>
	<polyline id="line-3" class="st1" points="179.1,408.4 340.7,408.4 340.7,533.6 	"/>
</g>
</svg>
